<svg width="25" height="26" viewBox="0 0 25 26" fill="none" xmlns="http://www.w3.org/2000/svg">
<path d="M3.125 25.375C2.26562 25.375 1.53021 25.0955 0.91875 24.5364C0.30625 23.9764 0 23.3036 0 22.5179V9.66071C0 9.20833 0.110937 8.77976 0.332812 8.375C0.553646 7.97024 0.859375 7.6369 1.25 7.375L10.625 0.946429C10.9115 0.755953 11.2109 0.613095 11.5234 0.517857C11.8359 0.422619 12.1615 0.375 12.5 0.375C12.8385 0.375 13.1641 0.422619 13.4766 0.517857C13.7891 0.613095 14.0885 0.755953 14.375 0.946429L23.75 7.375C24.1406 7.6369 24.4469 7.97024 24.6688 8.375C24.8896 8.77976 25 9.20833 25 9.66071V22.5179C25 23.3036 24.6943 23.9764 24.0828 24.5364C23.4703 25.0955 22.7344 25.375 21.875 25.375H15.625V15.375H9.375V25.375H3.125Z" fill="#725188"/>
</svg>
